<?xml version="1.0" encoding="utf-8" ?>
    <svg version="1.1"
        baseProfile="full"
        xmlns="http://www.w3.org/2000/svg"
        xmlns:xlink="http://www.w3.org/1999/xlink" 
         xmlns:rdf="http://www.w3.org/1999/02/22-rdf-syntax-ns#"
         xmlns:cc="http://creativecommons.org/ns#"
         xmlns:dc="http://purl.org/dc/elements/1.1/" 
        preserveAspectRatio="xMidYMid meet" height="1200" width="1000" viewBox="0,0,1030,1230 ">
<metadata>
<rdf:RDF>
      <cc:Work
         rdf:about="">
        <dc:format>image/svg+xml</dc:format>
        <dc:type
           rdf:resource="http://purl.org/dc/dcmitype/StillImage" />
        <dc:rights>
          <cc:Agent>
            <dc:title>This work is licensed under a &lt;a rel=&quot;license&quot; href=&quot;http://creativecommons.org/licenses/by-nc-sa/4.0/&quot;&gt;Creative Commons Attribution-NonCommercial-ShareAlike 4.0 International License&lt;/a&gt;.</dc:title>
          </cc:Agent>
        </dc:rights>
         <dc:creator>
           <cc:Agent>
              <dc:title>angels-of-vengance-alternate-symbol/warhammer - http://bakadesign.dk/warhammer-40-000-icons/
heater shape - https://commons.wikimedia.org/wiki/User:MG
</dc:title>
           </cc:Agent>
        </dc:creator>
      </cc:Work>
      </rdf:RDF>
</metadata>
<defs>
      <filter id="shiny" x="0" y="0" width="150%" height="150%">
      <feGaussianBlur in = "SourceAlpha" stdDeviation = "4" result = "blur1"/>
        <feSpecularLighting result = "specOut" in = "blur1" specularExponent = "20" lighting-color = "#696969">
            <fePointLight x = "300" y = "300" z = "500"/>
        </feSpecularLighting>
        <feComposite result="highlight" in = "SourceGraphic" in2 = "specOut" operator = "arithmetic" k1 = "0" k2 = "1" k3 = "1" k4 = "0"/>
      <feOffset result="offOut" in="SourceGraphic" dx="14" dy="14" />
      <feColorMatrix result = "matrixOut" in = "offOut" type = "matrix" values = "0.2 0 0 0 0 0 0.2 0 0 0 0 0 0.2 0 0 0 0 0 1 0"/>
      <feGaussianBlur result="blurOut" in="matrixOut" stdDeviation="10" />
      <feBlend in="highlight" in2="blurOut" mode="normal"/>
    </filter></defs><g transform="translate(16,16) scale(0.968)"><g  filter="url(#shiny)" ><g mask="url(#mask8-1)"><g><g  fill="#ffffff"><rect x='0' y='0' width='1000' height='1200'><title>Field</title></rect></g><g transform='translate(0,0)'><g  fill="#888888"><g class="PlaceCharge" transform=" translate(100,396.19883032997) scale(0.83542190550171, 0.83542190550171) " >
<title>a angels of vengance alternate symbol</title><g  transform="translate(0,-300.7)"  ><g  ><g  ><path d="m 569.4,447.6 c -13.6,-24.9 -27.3,-49 -41.2,-72.4 -8.8,0 -30.9,0 -50.6,0 -10.6,0 -21.2,0 -31.7,0 -4.2,0 -8.4,0 -12.5,0 -13.9,23.4 -27.6,47.6 -41.2,72.4 -52.9,96.9 -95.3,191.1 -129.7,280.6 -1.3,7.7 -2.6,15.4 -4,23.1 4.4,3.4 9.1,6.7 14.1,10.1 15.9,10.8 31.5,19.8 46.3,27.2 h 19.5 c 8.3,0 21,-2.6 16.7,-9.7 -7.7,-10.8 -15.4,-21.6 -23.2,-32.5 26,-58.9 57.7,-121.9 96.5,-187 14.7,-24.5 29.5,-48 44.2,-70.3 3.8,-5.9 12.5,-5.9 16.3,0 14.8,22.4 29.7,45.8 44.2,70.3 38.9,65.2 70.6,128.1 96.5,187 -7.7,10.8 -15.4,21.6 -23.2,32.5 -4.2,7.1 8.5,9.7 16.7,9.7 h 19.5 c 14.8,-7.3 30.3,-16.3 46.3,-27.2 4.9,-3.4 9.6,-6.7 14.1,-10.1 -1.3,-7.7 -2.6,-15.4 -4,-23.1 C 664.8,638.7 622.3,544.5 569.4,447.6 Z"  />
<path d="M 346.9,482.8 C 335.4,469.7 320.8,460.7 309.6,439.5 283.2,389 281.4,332.9 281.5,304.7 187.6,303.4 93.7,302.1 0,300.7 c 8.4,26.8 18.6,55.9 30.9,86.4 h 135 c 1,10.3 3.4,24 9,39.2 5.2,13.9 11.5,25 17.1,33.2 0,0 -77.2,0.5 -129.1,0.5 8.4,17.7 17.6,35.6 27.5,53.9 4.9,9 9.7,17.8 14.8,26.3 L 217.1,507 c 2.8,9.5 8.3,23.2 19.5,36.8 4.9,6 10.1,10.8 14.8,14.5 l -91.8,67.8 c 12.4,17.8 24.6,34.4 36.5,49.8 28.5,-21.8 57,-43.6 85.5,-65.4 z"  />
<path d="m 791.7,387.2 h 135 c 12.3,-30.7 22.5,-59.6 30.9,-86.4 -93.9,1.3 -187.8,2.6 -281.5,4 0.1,28.1 -1.7,84.3 -28.1,134.8 -11.1,21.2 -25.7,30.1 -37.3,43.3 l 65.4,127.7 c 28.5,21.8 57,43.6 85.5,65.4 11.9,-15.4 24.2,-32 36.5,-49.8 l -91.8,-67.9 c 4.7,-3.7 9.7,-8.5 14.8,-14.5 11.2,-13.5 16.6,-27.3 19.5,-36.8 l 111.9,33.3 c 4.9,-8.5 9.9,-17.3 14.8,-26.3 10,-18.3 19.1,-36.2 27.5,-53.9 -51.9,0 -129.1,-0.5 -129.1,-0.5 5.5,-8.2 11.9,-19.2 17.1,-33.2 5.5,-15.2 7.9,-28.8 8.9,-39.2 z"  />
<path d="m 586.7,678.1 c -3,0.4 -6.1,0.6 -9.3,0.7 -19.2,1.1 -35.6,-1.1 -47.8,-3.7 -3.6,-1.4 -8.9,-4.2 -13.9,-9.3 -2.3,-2.3 -4.1,-4.8 -5.5,-7.1 -4.3,-7.2 -0.7,-16.2 7.6,-19.1 5,-1.7 10.5,-3.8 16,-6.6 9.3,-4.4 17.1,-9.5 23.7,-14.5 -14.5,-28.1 -30.8,-57.8 -46.2,-84.5 -8.8,-15.3 -15.5,-18.4 -24.2,-27.6 -3.4,-3.6 -9,-3.6 -12.3,0 -8.7,9.4 -15.4,12.5 -24.2,27.6 -15.5,26.9 -31.9,56.9 -46.5,85.1 6.4,4.8 13.9,9.6 22.8,13.8 5.5,2.6 10.9,4.8 16,6.6 8.3,2.9 11.9,11.9 7.6,19.1 -1.4,2.4 -3.2,4.8 -5.5,7.1 -4.9,5 -10.3,7.8 -13.9,9.3 -12.4,2.6 -28.7,4.8 -47.8,3.7 -2.8,-0.1 -5.5,-0.4 -8.2,-0.6 -0.2,0.5 -0.5,1.1 -0.7,1.6 l -9,17.1 v 22 c 0,8.8 6.4,16.2 15,17.8 l 9.1,1.6 41.2,-38.2 4,4 -41.2,42.3 v 33.2 l 6.5,9 h 19 v -29.7 h 14 v 29.7 h 20.8 v -29.7 h 14.1 v 29.7 h 13.1 7.7 v -29.7 h 14.1 v 29.7 h 20.8 v -29.7 h 14.1 v 29.7 H 562 l 6.5,-9 v -33.2 l -41.2,-42.3 4,-4 41.2,38.2 9.1,-1.6 c 8.7,-1.4 15,-8.9 15,-17.8 v -22 l -9,-17.1 c -0.4,-0.4 -0.6,-1 -0.9,-1.6 z m -82.9,46.6 c -4.8,-1.2 -12.6,-6.1 -24.3,-6.3 -11.2,-0.1 -20.9,4.9 -26.9,6.3 -2.2,0.5 -5.2,-5.6 -4,-7.6 l 19.7,-31.6 c 5.2,-8.9 18.2,-8.4 22.7,0.7 l 16.8,31.1 c 1.1,2 -2,7.8 -4,7.4 z"  />
</g>
</g>
</g>
</g>
</g></g></g></g><defs><mask id="mask8-1" >
<path fill="#FFFFFF" d="m 0,0 v 800 c -2.5063876,43.11115 1.2341419,84.33503 21.489586,125.13639 20.255443,40.80137 53.477613,79.98631 98.039434,115.63581 44.56181,35.6494 100.44867,67.7517 164.92346,94.7345 64.47479,26.9828 137.51639,48.8374 215.54752,64.4933 78.03113,-15.6559 151.07273,-37.5105 215.54752,-64.4933 64.47479,-26.9828 120.36165,-59.0851 164.92346,-94.7345 44.56182,-35.6495 77.78399,-74.83444 98.03943,-115.63581 C 998.76586,884.33503 1000.1453,841.93063 1000,800 V 0 Z" />
</mask>
</defs></g></g>
</svg>
